<mxfile host="app.diagrams.net" modified="2023-09-09T04:13:48.374Z" agent="Mozilla/5.0 (Windows NT 10.0; Win64; x64) AppleWebKit/537.36 (KHTML, like Gecko) Chrome/116.0.0.0 Safari/537.36" etag="F0ZTMVW4zJoV_9qmSJ6_" version="21.7.4" type="github">
  <diagram name="PÃ¡gina-1" id="Z4IR-DLGixEvMI4_F9iS">
    <mxGraphModel dx="880" dy="438" grid="1" gridSize="10" guides="1" tooltips="1" connect="1" arrows="1" fold="1" page="1" pageScale="1" pageWidth="827" pageHeight="1169" math="0" shadow="0">
      <root>
        <mxCell id="0" />
        <mxCell id="1" parent="0" />
        <mxCell id="RxaVH-kXKdHQFNO0EMpF-1" value="" style="whiteSpace=wrap;html=1;aspect=fixed;" vertex="1" parent="1">
          <mxGeometry x="40" y="70" width="180" height="180" as="geometry" />
        </mxCell>
        <mxCell id="RxaVH-kXKdHQFNO0EMpF-2" value="" style="rounded=1;whiteSpace=wrap;html=1;" vertex="1" parent="1">
          <mxGeometry x="60" y="130" width="130" height="20" as="geometry" />
        </mxCell>
        <mxCell id="RxaVH-kXKdHQFNO0EMpF-3" value="" style="rounded=1;whiteSpace=wrap;html=1;" vertex="1" parent="1">
          <mxGeometry x="60" y="180" width="130" height="20" as="geometry" />
        </mxCell>
        <mxCell id="RxaVH-kXKdHQFNO0EMpF-6" value="Text" style="text;html=1;strokeColor=none;fillColor=none;align=center;verticalAlign=middle;whiteSpace=wrap;rounded=0;" vertex="1" parent="1">
          <mxGeometry x="100" y="80" width="60" height="30" as="geometry" />
        </mxCell>
        <mxCell id="RxaVH-kXKdHQFNO0EMpF-7" value="" style="whiteSpace=wrap;html=1;aspect=fixed;" vertex="1" parent="1">
          <mxGeometry x="480" y="80" width="180" height="180" as="geometry" />
        </mxCell>
        <mxCell id="RxaVH-kXKdHQFNO0EMpF-8" value="" style="rounded=1;whiteSpace=wrap;html=1;" vertex="1" parent="1">
          <mxGeometry x="500" y="140" width="130" height="20" as="geometry" />
        </mxCell>
        <mxCell id="RxaVH-kXKdHQFNO0EMpF-9" value="" style="rounded=1;whiteSpace=wrap;html=1;" vertex="1" parent="1">
          <mxGeometry x="500" y="190" width="130" height="20" as="geometry" />
        </mxCell>
        <mxCell id="RxaVH-kXKdHQFNO0EMpF-10" value="Text" style="text;html=1;strokeColor=none;fillColor=none;align=center;verticalAlign=middle;whiteSpace=wrap;rounded=0;" vertex="1" parent="1">
          <mxGeometry x="540" y="90" width="60" height="30" as="geometry" />
        </mxCell>
      </root>
    </mxGraphModel>
  </diagram>
</mxfile>
